<svg xmlns="http://www.w3.org/2000/svg" width="236" height="61" viewBox="0 0 236 61" fill="none">
  <g clip-path="url(#clip0_30_223)">
    <path fill-rule="evenodd" clip-rule="evenodd" d="M0.39917 35.2058H235.601V58.9087H0.39917V35.2058Z" fill="#4B4B4D"/>
    <path d="M42.4989 23.7029C42.8468 23.7029 43.1947 23.7029 43.1947 24.0514L44.9344 25.7943C43.5427 27.1886 42.1509 28.2343 40.4113 28.9314C38.6716 29.6286 36.584 30.3257 34.1485 30.3257C32.0609 30.3257 30.3213 29.6286 28.5816 28.9314C26.842 28.2343 25.1023 27.1886 24.0585 25.7943C22.6668 24.7486 21.9709 23.0057 21.2751 21.2629C20.5792 19.52 20.2313 17.4286 20.2313 14.9886C20.2313 12.8971 20.5792 10.8057 21.2751 9.06286C21.9709 6.97143 23.0147 5.57714 24.4064 4.18286C25.4502 2.78857 27.1899 1.74286 28.9295 1.04571C30.6692 0.348571 32.7568 0 34.8444 0C37.2799 0 39.0196 0.348571 40.4113 1.04571C42.1509 1.74286 43.5427 2.44 44.5865 3.83429L43.5427 5.57714C43.1947 5.57714 43.1947 5.92571 43.1947 5.92571H42.1509C41.803 5.57714 41.4551 5.57714 41.4551 5.22857C41.1071 5.22857 40.7592 4.88 40.4113 4.88C40.0634 4.53143 39.3675 4.18286 39.0196 4.18286C38.6716 3.83429 37.9758 3.83429 37.2799 3.48571H34.8444C33.4527 3.48571 32.0609 3.83429 30.6692 4.18286C29.2775 4.88 28.2337 5.57714 27.1899 6.62286C26.1461 7.66857 25.4502 8.71428 25.1023 10.1086C24.4064 11.8514 24.4064 13.2457 24.4064 14.9886C24.4064 17.08 24.4064 18.4743 25.1023 19.8686C25.4502 21.2629 26.1461 22.6571 27.1899 23.7029C28.2337 24.7486 29.2775 25.4457 30.3213 25.7943C31.713 26.4914 33.1047 26.84 34.4965 26.84C35.1923 26.84 36.2361 26.4914 36.932 26.4914C37.6278 26.4914 38.3237 26.1429 38.6716 26.1429C39.3675 25.7943 40.0634 25.4457 40.4113 25.0971C40.7592 24.7486 41.4551 24.4 41.803 24.0514C42.1509 23.7029 42.4989 23.7029 42.4989 23.7029ZM74.8565 14.9886C74.8565 17.4286 74.5086 19.1714 73.8127 21.2629C73.1168 23.0057 72.0731 24.7486 70.6813 25.7943C69.6375 27.1886 67.8979 28.2343 66.1582 28.9314C64.4186 29.6286 62.331 30.3257 60.2434 30.3257C58.1558 30.3257 56.0682 29.6286 54.3285 28.9314C52.5889 28.2343 50.8492 27.1886 49.8054 25.7943C48.4137 24.7486 47.3699 23.0057 46.6741 21.2629C45.9782 19.1714 45.6303 17.4286 45.6303 14.9886C45.6303 12.8971 45.9782 10.8057 46.6741 9.06286C47.3699 7.32 48.4137 5.57714 49.8054 4.18286C50.8492 2.78857 52.5889 1.74286 54.3285 1.04571C56.0682 0.348571 58.1558 0 60.2434 0C62.331 0 64.4186 0.348571 66.1582 1.04571C67.8979 1.74286 69.6375 2.78857 70.6813 4.18286C72.0731 5.57714 73.1168 7.32 73.8127 9.06286C74.5086 10.8057 74.8565 12.8971 74.8565 14.9886ZM70.6813 14.9886C70.6813 13.2457 70.3334 11.5029 69.9855 10.1086C69.2896 8.71428 68.5937 7.66857 67.8979 6.62286C66.8541 5.57714 65.8103 4.88 64.4186 4.18286C63.3748 3.83429 61.983 3.48571 60.2434 3.48571C58.5037 3.48571 57.112 3.83429 56.0682 4.18286C54.6765 4.88 53.6327 5.57714 52.5889 6.62286C51.893 7.66857 51.1972 8.71428 50.5013 10.1086C50.1534 11.5029 49.8054 13.2457 49.8054 14.9886C49.8054 17.08 50.1534 18.4743 50.5013 19.8686C51.1972 21.2629 51.893 22.6571 52.5889 23.7029C53.6327 24.7486 54.6765 25.4457 56.0682 25.7943C57.112 26.4914 58.5037 26.84 60.2434 26.84C61.983 26.84 63.3748 26.4914 64.4186 25.7943C65.8103 25.4457 66.8541 24.7486 67.8979 23.7029C68.5937 22.6571 69.2896 21.2629 69.9855 19.8686C70.3334 18.4743 70.6813 17.08 70.6813 14.9886ZM91.9051 19.1714C92.2531 19.52 92.2531 19.8686 92.601 20.2171C92.601 20.5657 92.9489 20.9143 92.9489 21.2629C92.9489 20.9143 93.2969 20.5657 93.2969 20.2171C93.6448 19.8686 93.6448 19.52 93.9927 19.1714L103.735 1.04571C104.083 0.697143 104.083 0.348571 104.431 0.348571H108.258V29.9771H104.779V8.01714V7.32V6.27428L94.6886 24.7486C94.3407 25.4457 93.9927 25.4457 93.2969 25.4457H92.601C91.9051 25.4457 91.5572 25.4457 91.2093 24.7486L80.7713 6.27428C81.1193 6.62286 81.1193 6.97143 81.1193 7.32V29.9771H77.64V0.348571H81.4672C81.4672 0.348571 81.8151 0.697143 81.8151 1.04571L91.9051 19.1714ZM127.046 19.1714C127.394 19.52 127.394 19.8686 127.742 20.2171C127.742 20.5657 128.09 20.9143 128.09 21.2629C128.09 20.9143 128.438 20.5657 128.438 20.2171C128.786 19.8686 128.786 19.52 129.134 19.1714L138.876 1.04571C139.224 0.697143 139.224 0.348571 139.572 0.348571H143.399V29.9771H139.92V8.01714V7.32V6.27428L129.83 24.7486C129.482 25.4457 129.134 25.4457 128.438 25.4457H127.742C127.394 25.4457 126.698 25.4457 126.35 24.7486L116.26 6.27428V29.9771H112.781V0.348571H116.608C116.608 0.348571 116.956 0.697143 116.956 1.04571L127.046 19.1714ZM166.015 0.348571V3.48571H151.749V13.2457H163.231V16.3829H151.749V26.4914H166.015V29.9771H147.922V0.348571H166.015ZM173.669 17.4286V29.9771H169.494V0.348571H177.844C179.584 0.348571 181.324 0.348571 182.715 1.04571C184.107 1.39429 185.151 1.74286 186.195 2.44C186.89 3.13714 187.586 4.18286 187.934 5.22857C188.282 6.27428 188.63 7.32 188.63 8.36571C188.63 9.41143 188.63 10.4571 188.282 11.5029C187.934 12.2 187.238 13.2457 186.542 13.9429C186.195 14.64 185.499 15.3371 184.455 15.6857C183.411 16.3829 182.367 16.7314 181.324 16.7314C182.019 17.08 182.367 17.4286 182.715 18.1257L191.414 29.9771H187.586C186.89 29.9771 186.542 29.6286 186.195 28.9314L178.54 18.4743C178.192 18.1257 178.192 17.7771 177.844 17.7771C177.496 17.4286 177.148 17.4286 176.452 17.4286H173.669ZM173.669 14.64H177.496C178.888 14.64 179.932 14.64 180.628 14.2914C181.671 13.9429 182.367 13.5943 183.063 12.8971C183.411 12.5486 184.107 11.8514 184.455 11.1543C184.455 10.4571 184.803 9.76 184.803 8.71428C184.803 6.97143 184.107 5.57714 183.063 4.88C182.019 3.83429 180.28 3.48571 177.844 3.48571H173.669V14.64ZM212.637 23.7029C212.985 23.7029 213.333 23.7029 213.333 24.0514L215.073 25.7943C213.681 27.1886 212.289 28.2343 210.55 28.9314C208.81 29.6286 206.723 30.3257 204.287 30.3257C202.199 30.3257 200.112 29.6286 198.372 28.9314C196.98 28.2343 195.241 27.1886 194.197 25.7943C192.805 24.7486 192.109 23.0057 191.414 21.2629C190.718 19.52 190.37 17.4286 190.37 14.9886C190.37 12.8971 190.718 10.8057 191.414 9.06286C192.109 6.97143 193.153 5.57714 194.545 4.18286C195.589 2.78857 197.328 1.74286 199.068 1.04571C200.808 0.348571 202.895 0 204.983 0C207.07 0 209.158 0.348571 210.55 1.04571C212.289 1.74286 213.681 2.44 214.725 3.83429L213.681 5.57714C213.333 5.57714 213.333 5.92571 213.333 5.92571H212.289C211.941 5.57714 211.594 5.57714 211.246 5.22857C211.246 5.22857 210.898 4.88 210.55 4.88C210.202 4.53143 209.506 4.18286 209.158 4.18286C208.462 3.83429 208.114 3.83429 207.418 3.48571H204.983C203.591 3.48571 202.199 3.83429 200.808 4.18286C199.416 4.88 198.372 5.57714 197.328 6.62286C196.285 7.66857 195.589 8.71428 195.241 10.1086C194.545 11.8514 194.197 13.2457 194.197 14.9886C194.197 17.08 194.545 18.4743 195.241 19.8686C195.589 21.2629 196.285 22.6571 197.328 23.7029C198.372 24.7486 199.416 25.4457 200.46 25.7943C201.851 26.4914 203.243 26.84 204.635 26.84C205.331 26.84 206.375 26.4914 207.07 26.4914C207.766 26.4914 208.114 26.1429 208.81 26.1429C209.506 25.7943 209.854 25.4457 210.55 25.0971C210.898 24.7486 211.594 24.4 211.941 24.0514C212.289 23.7029 212.637 23.7029 212.637 23.7029ZM235.601 0.348571V3.48571H221.684V13.2457H232.817V16.3829H221.684V26.4914H235.601V29.9771H217.508V0.348571H235.601Z" fill="#4B4B4D"/>
    <path d="M15.0123 51.9372H13.2726V46.7087H6.66193V51.9372H5.2702V40.783H6.66193V45.663H13.2726V40.783H15.0123V51.9372ZM48.0658 46.3601C48.0658 47.0572 48.0658 48.103 47.7178 48.8001C47.3699 49.1487 47.022 49.8458 46.674 50.543L44.5865 51.5887C43.8906 51.9372 43.1947 51.9372 42.1509 51.9372C41.4551 51.9372 40.4113 51.9372 39.7154 51.5887C39.0196 51.2401 38.3237 50.8915 37.9758 50.543C37.2799 49.8458 36.932 49.1487 36.584 48.8001C36.584 48.103 36.2361 47.0572 36.2361 46.3601C36.2361 45.663 36.584 44.9658 36.584 44.2687C36.932 43.5715 37.2799 42.8744 37.9758 42.5258C38.3237 41.8287 39.0196 41.4801 39.7154 41.1315C40.4113 40.783 41.4551 40.783 42.1509 40.783C43.1947 40.783 43.8906 40.783 44.5865 41.1315C45.2823 41.4801 45.9782 41.8287 46.674 42.5258C47.022 42.8744 47.3699 43.5715 47.7178 44.2687C48.0658 44.9658 48.0658 45.663 48.0658 46.3601ZM46.3261 46.3601V44.6172C45.9782 43.9201 45.6302 43.5715 45.2823 43.223C44.9344 42.8744 44.5865 42.5258 43.8906 42.5258C43.5427 42.1772 42.8468 42.1772 42.1509 42.1772C41.4551 42.1772 41.1071 42.1772 40.4113 42.5258C40.0633 42.5258 39.3675 42.8744 39.0196 43.223C38.6716 43.5715 38.3237 43.9201 38.3237 44.6172C37.9758 44.9658 37.9758 45.663 37.9758 46.3601C37.9758 47.0572 37.9758 47.7544 38.3237 48.103C38.3237 48.8001 38.6716 49.1487 39.0196 49.4972C39.3675 49.8458 40.0633 50.1944 40.4113 50.543H43.8906C44.5865 50.1944 44.9344 49.8458 45.2823 49.4972C45.6302 49.1487 45.9782 48.8001 46.3261 48.103V46.3601ZM79.0317 42.5258C79.0317 42.8744 79.0317 42.8744 78.6837 42.8744H78.3358C77.9879 42.5258 77.9879 42.5258 77.6399 42.5258C77.6399 42.5258 77.292 42.1772 76.9441 42.1772H75.2044C74.8565 42.1772 74.5086 42.5258 74.5086 42.5258C74.1606 42.5258 74.1606 42.8744 74.1606 43.223C73.8127 43.223 73.8127 43.5715 73.8127 43.5715C73.8127 43.9201 73.8127 44.2687 74.1606 44.6172C74.1606 44.6172 74.5086 44.9658 74.8565 44.9658C75.2044 45.3144 75.2044 45.3144 75.5524 45.3144C75.9003 45.3144 76.2482 45.663 76.5961 45.663C77.292 45.663 77.6399 46.0115 77.9879 46.0115L78.6837 46.7087C79.0317 46.7087 79.3796 47.0572 79.3796 47.4058C79.7275 47.7544 79.7275 48.103 79.7275 48.4515C79.7275 49.1487 79.3796 49.4972 79.3796 49.8458C79.0317 50.1944 79.0317 50.543 78.6837 50.8915C78.3358 51.2401 77.9879 51.5887 77.292 51.5887C76.9441 51.9372 76.2482 51.9372 75.5524 51.9372C74.8565 51.9372 74.1606 51.9372 73.4648 51.5887C72.7689 51.2401 72.421 50.8915 71.7251 50.543L72.421 49.8458C72.421 49.4972 72.7689 49.4972 72.7689 49.4972L73.1168 49.8458C73.1168 49.8458 73.4648 50.1944 73.8127 50.1944C73.8127 50.1944 74.1606 50.543 74.5086 50.543H76.5961C76.9441 50.543 77.292 50.1944 77.6399 50.1944C77.6399 49.8458 77.9879 49.8458 77.9879 49.4972V48.8001V47.7544C77.6399 47.7544 77.6399 47.4058 77.292 47.4058C76.9441 47.4058 76.5961 47.0572 76.2482 47.0572C75.9003 47.0572 75.5524 46.7087 75.2044 46.7087C74.8565 46.7087 74.5086 46.3601 74.1606 46.3601C73.8127 46.3601 73.4648 46.0115 73.1168 45.663C73.1168 45.663 72.7689 45.3144 72.7689 44.9658C72.421 44.6172 72.421 44.2687 72.421 43.9201C72.421 43.5715 72.421 43.223 72.7689 42.5258C72.7689 42.1772 73.1168 42.1772 73.4648 41.8287C73.8127 41.4801 74.1606 41.1315 74.5086 41.1315C74.8565 40.783 75.5524 40.783 76.2482 40.783C76.5961 40.783 77.292 40.783 77.9879 41.1315C78.3358 41.1315 79.0317 41.4801 79.3796 41.8287L79.0317 42.5258ZM112.433 40.783V42.1772H108.606V51.9372H106.866V42.1772H103.039V40.783H112.433ZM153.489 40.783V41.1315H153.837L160.796 49.4972V49.1487V40.783H162.187V51.9372H161.491C161.143 51.9372 161.143 51.9372 161.143 51.5887H160.796L153.837 43.223V51.9372H152.445V40.783H153.489ZM198.372 40.783V42.1772H192.457V45.663H196.98V47.0572H192.457V50.543H198.372V51.9372H190.718V40.783H198.372ZM231.078 40.783V42.1772H227.25V51.9372H225.859V42.1772H221.684V40.783H231.078Z" fill="#FEFEFE"/>
    <path d="M19.5354 1.39429V4.53143H5.27021V13.9429H16.7519V17.08H5.27021V26.84H19.5354V29.9771H1.09503V1.39429H19.5354Z" fill="#4B4B4D"/>
    <path d="M0.39917 60.9999H235.601M0.39917 32.7656H235.601" stroke="#B0B0B0" stroke-width="7.37143" stroke-miterlimit="2.613"/>
    <path d="M125.654 48.8C125.654 48.4514 126.002 48.1028 126.002 47.7543C126.35 47.0571 126.35 46.7086 126.698 46.7086L127.742 45.6628H130.526L131.569 46.7086C131.917 46.7086 132.265 47.0571 132.265 47.7543C132.613 48.1028 132.613 48.4514 132.613 48.8C132.613 49.4971 132.613 49.8457 132.265 50.1943C132.265 50.8914 131.917 51.24 131.569 51.24C131.221 51.5886 130.873 51.9371 130.526 51.9371C130.178 52.2857 129.83 52.2857 129.134 52.2857C128.786 52.2857 128.438 52.2857 127.742 51.9371C127.394 51.9371 127.046 51.5886 126.698 51.24C126.35 51.24 126.35 50.8914 126.002 50.1943C126.002 49.8457 125.654 49.4971 125.654 48.8Z" fill="#00AFEF"/>
  </g>
  <defs>
    <clipPath id="clip0_30_223">
      <rect width="236" height="61" fill="white"/>
    </clipPath>
  </defs>
</svg>