<svg width="46" height="46" viewBox="0 0 46 46" fill="none" xmlns="http://www.w3.org/2000/svg">
<g id="&#240;&#159;&#166;&#134; icon &#34;profile circled&#34;">
<path id="Vector" d="M23 2C11.402 2 2 11.402 2 23C2 34.5979 11.402 44 23 44C34.5979 44 44 34.5979 44 23C44 11.402 34.5979 2 23 2Z" stroke="#FFFDFD" stroke-width="3" stroke-linecap="round" stroke-linejoin="round"/>
<path id="Vector_2" d="M6.7691 36.3261C6.7691 36.3261 11.45 30.3501 23 30.3501C34.55 30.3501 39.2311 36.3261 39.2311 36.3261" stroke="#FFFDFD" stroke-width="3" stroke-linecap="round" stroke-linejoin="round"/>
<path id="Vector_3" d="M23 22.9999C26.4795 22.9999 29.3 20.1794 29.3 16.6999C29.3 13.2205 26.4795 10.3999 23 10.3999C19.5205 10.3999 16.7 13.2205 16.7 16.6999C16.7 20.1794 19.5205 22.9999 23 22.9999Z" stroke="#FFFDFD" stroke-width="3" stroke-linecap="round" stroke-linejoin="round"/>
</g>
</svg>
